<svg xmlns="http://www.w3.org/2000/svg" viewBox="0 18 432.04998779296875 35.599998474121094" data-asc="1.06" width="432.04998779296875" height="35.599998474121094"><defs/><g fill="#000000"><g transform="translate(0, 0)"><path d="M0 53L0.50 49L0.50 22L0 18L14.80 18Q19.85 18 22.82 20.27Q25.80 22.55 25.80 27Q25.80 29.75 24.48 31.75Q23.15 33.75 20.05 34.45L20.05 34.95Q22.95 35.55 24.93 37.52Q26.90 39.50 26.90 43.50Q26.90 46.85 25.45 48.92Q24 51 21.45 52Q18.90 53 15.55 53L0 53M7.40 47.20L12.45 47.20Q16.30 47.20 17.90 46.30Q19.50 45.40 19.50 42.80Q19.50 40.20 17.93 39.20Q16.35 38.20 12.45 38.20L7.40 38.20L7.40 47.20M7.40 32.40L11.85 32.40Q14.90 32.40 16.70 31.63Q18.50 30.85 18.50 28.15Q18.50 25.45 16.70 24.63Q14.90 23.80 11.85 23.80L7.40 23.80L7.40 32.40ZM33 53L33.50 49L33.50 18L41.10 18L55.45 39.40L56.75 44.50L57.30 44.50L57.30 22L56.80 18L64.70 18L64.20 22L64.20 53L56.60 53L42.25 31.60L40.95 26.50L40.40 26.50L40.40 49L40.90 53L33 53ZM77.80 53.60Q74.75 53.60 73.08 52.92Q71.40 52.25 70.50 51.60L70.50 45.90L71.50 45.40Q72.50 46.25 73.93 46.92Q75.35 47.60 77.30 47.60Q78.55 47.60 79.65 47.20Q80.75 46.80 81.43 45.83Q82.10 44.85 82.10 43.05L82.10 24L82.10 18L89.50 18L89.00 22L89.00 43.40Q89.00 48.10 86.23 50.85Q83.45 53.60 77.80 53.60M72.30 24.40L72.30 18L85.60 18L85.60 23.90L75.30 23.90L72.30 24.40ZM116.60 53L117.10 49L117.10 20.80L124.00 20.80L124.00 49L124.50 53L116.60 53M107.20 24.60L107.20 18L133.90 18L133.90 24.60L130.90 24.10L110.20 24.10L107.20 24.60ZM138.50 53L139.00 49L139.00 22L138.50 18L160.80 18L160.80 24.40L157.80 23.90L145.80 23.90L145.80 32.25L159.25 32.25L159.25 38.55L156.25 38.15L145.80 38.15L145.80 47.10L157.80 47.10L160.80 46.60L160.80 53L138.50 53ZM164.80 53L177.00 18L186.10 18L198.30 53L190.55 53L189.55 49L182.30 26.20L181.80 23.10L181.30 23.10L180.80 26.20L173.55 49L172.55 53L164.80 53M171.30 45L171.30 39L191.80 39L191.80 45L171.30 45ZM202.40 53L202.90 49L202.90 18L212.45 18L220.60 41.45L221.20 45.75L221.80 45.75L222.40 41.45L230.55 18L240.10 18L240.10 49L240.60 53L232.70 53L233.20 49L233.20 27.40L232.60 27.40L231.60 33.80L225.00 52.50L218.05 52.50L211.40 33.80L210.40 27.40L209.80 27.40L209.80 49L210.30 53L202.40 53ZM260.90 53L261.40 49L261.40 18L270.95 18L279.10 41.45L279.70 45.75L280.30 45.75L280.90 41.45L289.05 18L298.60 18L298.60 49L299.10 53L291.20 53L291.70 49L291.70 27.40L291.10 27.40L290.10 33.80L283.50 52.50L276.55 52.50L269.90 33.80L268.90 27.40L268.30 27.40L268.30 49L268.80 53L260.90 53ZM303.20 53L315.40 18L324.50 18L336.70 53L328.95 53L327.95 49L320.70 26.20L320.20 23.10L319.70 23.10L319.20 26.20L311.95 49L310.95 53L303.20 53M309.70 45L309.70 39L330.20 39L330.20 45L309.70 45ZM361.20 53L358.80 49L351.35 38.15L344.95 38.15L344.95 32.25L350.80 32.25L359.10 21.30L361.20 18L369.50 18L356.95 34.45L369.65 53L361.20 53M340.80 53L341.30 49L341.30 22L340.80 18L348.70 18L348.20 22L348.20 49L348.70 53L340.80 53ZM374.75 53L375.25 49L375.25 22L374.75 18L397.05 18L397.05 24.40L394.05 23.90L382.05 23.90L382.05 32.25L395.50 32.25L395.50 38.55L392.50 38.15L382.05 38.15L382.05 47.10L394.05 47.10L397.05 46.60L397.05 53L374.75 53ZM404.15 53L404.65 49L404.65 22L404.15 18L418.50 18Q422.05 18 424.60 19.30Q427.15 20.60 428.50 22.95Q429.85 25.30 429.85 28.40Q429.85 30.55 429.18 32.50Q428.50 34.45 427.05 35.97Q425.60 37.50 423.35 38.38Q421.10 39.25 418 39.25L411.45 39.25L411.45 49L411.95 53L404.15 53M423.75 53L421.55 49L413.35 36.50L419.10 36.50L423.85 40.30L432.05 53L423.75 53M411.45 33.50L417.15 33.50Q419.65 33.50 421.13 32.38Q422.60 31.25 422.60 28.70Q422.60 26.20 421.10 25.07Q419.60 23.95 417.05 23.95L411.45 23.95L411.45 33.50Z"/></g></g></svg>