<svg xmlns="http://www.w3.org/2000/svg" viewBox="0 0 64 64" fill="none">
    <path d="M48.3323 26.3332V23.9999C48.3323 15.201 48.3323 10.8003 45.5977 8.06802C42.8631 5.33571 38.4649 5.33337 29.6662 5.33337C20.8674 5.33337 16.4669 5.33337 13.7346 8.06802C11.0023 10.8027 11 15.201 11 23.9999V33.3332C11 42.1321 11 46.5327 13.7346 49.265C16.4692 51.9974 20.8674 51.9997 29.6662 51.9997" stroke="#590293" stroke-width="1.5" stroke-linecap="round" stroke-linejoin="round"/>
    <path d="M52.9998 51.9996L49.0005 48.0003M20.334 16.9999H39.0001M20.334 26.3331H29.6671M50.3328 41.334C50.351 42.3961 50.1575 43.4511 49.7636 44.4376C49.3697 45.424 48.7834 46.3222 48.0387 47.0797C47.2941 47.8371 46.4061 48.4388 45.4265 48.8494C44.4469 49.2601 43.3954 49.4716 42.3332 49.4716C41.271 49.4716 40.2195 49.2601 39.2399 48.8494C38.2603 48.4388 37.3723 47.8371 36.6277 47.0797C35.8831 46.3222 35.2967 45.424 34.9029 44.4376C34.509 43.4511 34.3155 42.3961 34.3336 41.334C34.3694 39.236 35.228 37.236 36.7243 35.765C38.2206 34.294 40.2349 33.4697 42.3332 33.4697C44.4315 33.4697 46.4458 34.294 47.9421 35.765C49.4384 37.236 50.297 39.236 50.3328 41.334Z" stroke-width="1.5" stroke-linecap="round" stroke-linejoin="round"/>
    <script xmlns=""/>
</svg>

