<svg width="284" height="140" viewBox="0 0 284 140" fill="none"
    xmlns="http://www.w3.org/2000/svg">
    <rect width="284" height="140" rx="7" />
    <path d="M82.0967 70.8736H76.4927C76.4726 66.2967 74.6279 61.914 71.3622 58.6846C68.0965 55.4553 63.6758 53.6422 59.0674 53.6422C54.459 53.6422 50.0383 55.4553 46.7726 58.6846C43.5069 61.914 41.6622 66.2967 41.6421 70.8736H36.0371C36.0371 64.8071 38.4635 58.9892 42.7826 54.6995C47.1016 50.4099 52.9595 48 59.0676 48C65.1756 48 71.0335 50.4099 75.3526 54.6995C79.6716 58.9892 82.098 64.8071 82.098 70.8736H82.0967Z" fill="#2E2E8E"/>
    <path d="M45.1212 88.2845C46.7731 88.2845 48.0949 87.6176 48.8218 86.6964L52.2586 88.6017C50.7056 90.7602 48.227 91.9985 45.0539 91.9985C39.5023 91.9985 36 88.3471 36 83.6174C36 78.8877 39.5351 75.2363 44.7237 75.2363C49.614 75.2363 53.0835 78.9504 53.0835 83.6174C53.081 84.1818 53.0259 84.7447 52.9189 85.2996H40.4611C41.0559 87.3958 42.8734 88.2845 45.1212 88.2845ZM48.8218 82.1248C48.2933 79.8394 46.5085 78.9183 44.7244 78.9183C42.4439 78.9183 40.891 80.0936 40.3952 82.1248H48.8218Z" fill="#2E2E8E"/>
    <path d="M72.8786 75.6802V91.5534H68.6159V89.6806C67.4259 91.1095 65.6422 91.9982 63.2298 91.9982C58.8343 91.9982 55.1992 88.3468 55.1992 83.6171C55.1992 78.8874 58.8343 75.2363 63.2288 75.2363C65.6411 75.2363 67.4249 76.125 68.6149 77.5529V75.6802H72.8786ZM68.6159 83.6187C68.6159 80.9514 66.6665 79.1423 64.022 79.1423C61.4123 79.1423 59.4619 80.9514 59.4619 83.6187C59.4619 86.286 61.4123 88.0952 64.022 88.0952C66.6665 88.0935 68.6159 86.2837 68.6159 83.6174V83.6187Z" fill="#2E2E8E"/>
    <path d="M86.0299 75.3633V79.9349C83.8156 79.6806 81.0068 80.6332 81.0068 83.9661V91.5537H76.7441V75.6805H81.0082V78.4108C81.8666 76.2519 83.9477 75.3633 86.0299 75.3633Z" fill="#2E2E8E"/>
    <path d="M94.2233 79.6178V86.2213C94.2233 87.9349 95.5123 87.9664 97.9574 87.8398V91.5539C91.9762 92.1893 89.9606 90.5071 89.9606 86.2213V79.6178H87.0859V75.6813H89.9606V70.5938H94.2233V75.6807H97.9574V79.6172L94.2233 79.6178Z" fill="#2E2E8E"/>
    <path d="M116.662 81.8075V91.5536H112.399V82.3146C112.399 80.1561 111.045 79.0454 109.128 79.0454C107.045 79.0454 105.493 80.2201 105.493 82.9819V91.5536H101.23V70.5918H105.493V77.4574C106.483 76.0294 108.203 75.2359 110.417 75.2359C113.919 75.2359 116.662 77.585 116.662 81.8075Z" fill="#2E2E8E"/>
    <path d="M145.377 75.6805V91.5537H141.114V89.6809C139.924 91.1099 138.14 91.9985 135.728 91.9985C131.332 91.9985 127.697 88.3471 127.697 83.6174C127.697 78.8877 131.332 75.2363 135.728 75.2363C138.14 75.2363 139.924 76.125 141.114 77.5529V75.6805H145.377ZM141.114 83.6191C141.114 80.9518 139.165 79.1426 136.521 79.1426C133.91 79.1426 131.96 80.9518 131.96 83.6191C131.96 86.2864 133.91 88.0955 136.521 88.0955C139.165 88.0939 141.114 86.2841 141.114 83.6178V83.6191Z" fill="#2E2E8E"/>
    <path d="M164.803 75.6797L158.525 91.5529H153.667L147.389 75.6797H152.08L156.079 86.7911L160.11 75.6797H164.803Z" fill="#2E2E8E"/>
    <path d="M165.399 83.6177C165.395 81.9553 165.906 80.3294 166.865 78.9458C167.824 77.5622 169.189 76.4833 170.787 75.8456C172.385 75.2079 174.144 75.0402 175.841 75.3637C177.538 75.6872 179.097 76.4873 180.321 77.6628C181.545 78.8383 182.377 80.3361 182.714 81.9667C183.051 83.5973 182.876 85.2872 182.213 86.8224C181.549 88.3576 180.426 89.669 178.986 90.5905C177.545 91.512 175.853 92.0021 174.123 91.9988C172.974 92.0106 171.834 91.8019 170.77 91.3849C169.706 90.9679 168.739 90.351 167.927 89.5703C167.114 88.7897 166.472 87.8611 166.038 86.8389C165.604 85.8167 165.387 84.7216 165.399 83.6177ZM178.617 83.6177C178.617 81.0455 176.667 79.2367 174.123 79.2367C171.611 79.2367 169.662 81.0458 169.662 83.6177C169.662 86.1895 171.611 87.9987 174.123 87.9987C176.667 87.9987 178.617 86.1889 178.617 83.6177Z" fill="#2E2E8E"/>
    <path d="M185.025 83.6186C185.025 78.8879 188.727 75.2375 193.749 75.2375C195.253 75.2131 196.736 75.5811 198.04 76.3023C199.343 77.0234 200.419 78.0707 201.152 79.3327L197.482 81.3961C197.128 80.7352 196.587 80.1844 195.92 79.8078C195.253 79.4312 194.488 79.2443 193.715 79.2688C191.171 79.2688 189.287 81.0786 189.287 83.6182C189.287 86.1264 191.171 87.9356 193.715 87.9356C195.434 87.9356 196.855 87.142 197.516 85.8407L201.217 87.8713C200.471 89.1386 199.384 90.1901 198.071 90.916C196.757 91.6419 195.265 92.0156 193.749 91.998C188.727 91.9997 185.025 88.3483 185.025 83.6186Z" fill="#2E2E8E"/>
    <path d="M219.954 75.6802V91.5534H215.689V89.6806C214.5 91.1095 212.715 91.9982 210.303 91.9982C205.909 91.9982 202.273 88.3468 202.273 83.6171C202.273 78.8874 205.91 75.2363 210.304 75.2363C212.717 75.2363 214.502 76.125 215.69 77.5529V75.6802H219.954ZM215.689 83.6174C215.689 80.9485 213.743 79.141 211.098 79.141C208.487 79.141 206.537 80.9501 206.537 83.6174C206.537 86.2847 208.487 88.0939 211.098 88.0939C213.743 88.0935 215.689 86.2837 215.689 83.6174Z" fill="#2E2E8E"/>
    <path d="M229.537 79.6178V86.2213C229.537 87.9349 230.826 87.9664 233.272 87.8398V91.5539C227.29 92.1893 225.275 90.5071 225.275 86.2213V79.6178H222.4V75.6813H225.275V70.5938H229.537V75.6807H233.272V79.6172L229.537 79.6178Z" fill="#2E2E8E"/>
    <path d="M249.001 86.9185C249.001 90.3469 245.894 91.9979 242.359 91.9979C239.055 91.9979 236.61 90.6641 235.42 88.2199L239.121 86.2188C239.583 87.5201 240.707 88.2822 242.359 88.2822C243.714 88.2822 244.639 87.8374 244.639 86.9172C244.639 84.5996 236.114 85.8694 236.114 80.2813C236.114 77.0435 238.988 75.2344 242.392 75.2344C245.069 75.2344 247.382 76.4091 248.671 78.5991L245.036 80.506C244.814 80.013 244.444 79.5951 243.973 79.3064C243.501 79.0177 242.951 78.8714 242.392 78.8864C241.334 78.8864 240.475 79.3313 240.475 80.1888C240.476 82.5379 249.001 81.0774 249.001 86.9185Z" fill="#2E2E8E"/>
</svg>
