<svg width="284" height="140" viewBox="0 0 284 140" fill="none"
    xmlns="http://www.w3.org/2000/svg">
    <rect width="284" height="140" rx="7" />
    <path fill-rule="evenodd" clip-rule="evenodd" d="M115.382 92.3655L122.641 69.5555L129.96 92.3655H134.819L148.798 55.8156H142.799H142.798L132.42 84.4084L124.801 60.7492H120.542H120.541L112.923 84.4084L103.435 55.7285H96.5289H96.5287L110.535 92.3655H115.382ZM93.0065 60.443L91.3458 55.8209C88.5424 56.1154 86.0867 57.0442 83.9464 58.6356C81.3068 60.5454 79.987 62.9857 79.987 66.0095C79.987 70.8368 83.3464 74.0196 90.0655 75.558L95.4048 76.725C96.9008 77.019 98.2387 77.4596 99.3361 78.0596L97.2717 72.3143C97.1308 72.2807 96.9883 72.248 96.8444 72.216L91.4452 71.049C87.5457 70.2001 85.566 68.5027 85.566 65.9562C85.566 64.3119 86.346 62.9857 87.8458 61.9778C89.3311 61.0179 91.0341 60.491 93.0065 60.443ZM103.772 90.4071C103.723 90.4441 103.674 90.4808 103.623 90.5173C101.164 92.3211 97.9842 93.2228 94.085 93.2228C89.9456 93.2228 86.526 92.1087 83.7664 89.9338C81.0067 87.7059 79.627 85.1067 79.627 82.1359H85.2063C85.2662 83.7805 86.1061 85.3189 87.7859 86.6451C89.4655 87.9711 91.5653 88.6076 94.085 88.6076C98.0622 88.6076 100.662 87.1186 101.822 84.9781L103.772 90.4071ZM160.286 56.1428L147.003 92.6929H141.004L154.982 56.1428H160.286ZM176.082 87.7594L168.463 64.1L158.084 92.6929H152.085L166.063 56.1428H170.922L178.241 78.9534L185.5 56.1428H190.36L204.338 92.6929H198.338L187.96 64.1L180.341 87.7594H176.082Z" fill="#383838"/>
</svg>
